<svg height="110" viewBox="0 0 200 110" width="200" xmlns="http://www.w3.org/2000/svg"><style>path.logo-io{fill:#b4b6bb}path.logo-c{fill:#2b2c2f} @media (prefers-color-scheme: dark){path.logo-io{fill:#b4b6bb}path.logo-c{fill:#fff}}</style><g fill="none" fill-rule="nonzero"><path class="logo-io" d="m96.5174129 101.043709c0-2.3499256.7623208-4.2506026 2.2869625-5.702028 1.5246416-1.4514253 3.4924926-2.177138 5.9035536-2.177138 2.411062 0 4.378913.7257127 5.903555 2.177138 1.524639 1.4514254 2.286962 3.3521024 2.286962 5.702028 0 2.349928-.762323 4.267882-2.286962 5.753865-1.524642 1.485983-3.492493 2.228975-5.903555 2.228975-2.411061 0-4.378912-.742992-5.9035536-2.228975-1.5246417-1.485983-2.2869625-3.403939-2.2869625-5.753865zm26.3719661-45.097859h13.615404v51.83662h-13.615404zm-.957333-14.3069071c0-2.2116936.726864-4.0259753 2.180592-5.442845 1.453726-1.4168697 3.315207-2.1253014 5.584443-2.1253014 2.269232 0 4.130713.7084317 5.584443 2.1253014 1.453728 1.4168697 2.180592 3.2311514 2.180592 5.442845 0 2.2117571-.726864 4.0087578-2.180592 5.3910085-1.45373 1.3823078-3.315211 2.0734648-5.584443 2.0734648-2.269236 0-4.130717-.691157-5.584443-2.0734648-1.453734-1.3823077-2.180592-3.1793148-2.180592-5.3910085zm23.287226 40.225217c0-4.0086976.673677-7.6718197 2.021037-10.9893634 1.347356-3.3175437 3.244295-6.1685577 5.690813-8.5530423 2.446518-2.3844845 5.336246-4.2506028 8.669183-5.5983549 3.332936-1.3477521 7.020443-2.0216282 11.062516-2.0216282s7.729577.6738761 11.062516 2.0216282c3.332938 1.3477521 6.204937 3.2138704 8.615998 5.5983549 2.411059 2.3844846 4.290269 5.2354986 5.637628 8.5530423 1.34736 3.3175437 2.021037 6.9806658 2.021037 10.9893634 0 3.9395831-.673677 7.5854259-2.021037 10.9375268-1.347359 3.3521041-3.226569 6.2203974-5.637628 8.6048793-2.411061 2.384484-5.28306 4.250602-8.615998 5.598355-3.332939 1.347752-7.020443 2.021628-11.062516 2.021628s-7.72958-.673876-11.062516-2.021628c-3.332937-1.347753-6.222665-3.213871-8.669183-5.598355-2.446518-2.3844849-4.343457-5.2527785-5.690813-8.6048793-1.34736-3.3521009-2.021037-6.9979437-2.021037-10.9375268zm13.934516 0c0 2.4190417.336839 4.6134592 1.010518 6.5832507.673677 1.9697916 1.595555 3.6458429 2.765629 5.0281521 1.170074 1.3823109 2.588343 2.4708799 4.254814 3.2657071 1.666466.7948272 3.492493 1.1922422 5.478072 1.1922422 1.985578 0 3.793874-.397415 5.424888-1.1922422 1.631012-.7948272 3.031555-1.8833962 4.201629-3.2657071 1.170073-1.3823092 2.091948-3.0583605 2.765629-5.0281521.673678-1.9697915 1.010518-4.164209 1.010518-6.5832507 0-2.3499258-.33684-4.5270638-1.010518-6.5314141-.673681-2.0044169-1.595556-3.6977474-2.765629-5.0799887-1.170074-1.3823108-2.570617-2.4708799-4.201629-3.2657071-1.631014-.7948272-3.43931-1.1922422-5.424888-1.1922422-1.985635 0-3.811657.397415-5.478072 1.1922422-1.666471.7948272-3.08474 1.8833963-4.254814 3.2657071s-2.091952 3.0756385-2.765629 5.0799887c-.673679 2.0043503-1.010518 4.1814883-1.010518 6.5314141z" /><path class="logo-c" d="m0 55c0-8.0337079 1.3149443-15.4236907 3.9448281-22.1699438 2.62988379-6.7462579 6.311725-12.5397972 11.0455187-17.380618s10.3617492-8.62593319 16.8838642-11.35533708c6.5221609-2.72940389 13.6754506-4.09410112 21.4598649-4.09410112 10.6247724 0 21.0391186 2.57490951 31.2430385 7.7247191v18.2303371c-4.7337937-2.8838984-9.4412853-5.0983146-14.1224846-6.6432584-4.6811943-1.5449439-9.2308977-2.3174158-13.6491052-2.3174158-5.2597724 0-10.0724627.9269663-14.4380708 2.7808989-4.3656515 1.8539326-8.1000872 4.4545848-11.2033118 7.8019663-3.1032655 3.3473767-5.5227594 7.3642306-7.2584837 12.0505618-1.7357244 4.6863312-2.6035866 9.8103932-2.6035866 15.372191s.8678622 10.6601124 2.6035866 15.2949438c1.7357243 4.6348315 4.1552182 8.6516854 7.2584837 12.0505618 3.1032631 3.3988764 6.8377037 6.0252809 11.2033118 7.8792135s9.1782984 2.7808989 14.4380708 2.7808989c4.4182075 0 8.9679109-.7724719 13.6491052-2.3174158 4.6811993-1.5449438 9.3886909-3.7593625 14.1224846-6.6432584v18.2303372c-10.2039586 5.149812-20.6182999 7.724719-31.2430385 7.724719-7.7844624 0-14.9377474-1.3647-21.4598649-4.094101-6.522115-2.729399-12.1500705-6.5145116-16.8838642-11.3553372-4.7337937-4.8408233-8.41563491-10.6343626-11.0455187-17.380618-2.62988861-6.7462554-3.9448281-14.1362359-3.9448281-22.1699438z"/></g></svg>