<svg xmlns="http://www.w3.org/2000/svg" xmlns:xlink="http://www.w3.org/1999/xlink" width="458px" height="59px"
    viewBox="0 0 458 59" version="1.1" style="font-size: 1.125rem;
    font-weight:700;
    letter-spacing: var(--fk-alpha-l);
    line-height: 1.5;
    width: 8.75rem;">
    <g id="Page-1" stroke="none" stroke-width="1" fill="none" fill-rule="evenodd">
        <g id="consultoria-io" fill-rule="nonzero">
            <path
                d="M0,30 C0,25.84 0.66666748,22.0133325 2,18.52 C3.33333252,15.026665 5.2,12.026665 7.6,9.52 C10,7.01333496 12.8533337,5.05333496 16.16,3.64 C19.4666895,2.22666504 23.0933569,1.52 27.04,1.52 C32.4266846,1.52 37.7066846,2.85333496 42.88,5.52 L42.88,14.96 C40.48,13.466665 38.093335,12.32 35.72,11.52 C33.3466675,10.72 31.04,10.32 28.8,10.32 C26.1333325,10.32 23.6933325,10.8 21.48,11.76 C19.2666455,12.72 17.373313,14.066665 15.8,15.8 C14.2266663,17.5333325 13,19.6133325 12.12,22.04 C11.24,24.4666675 10.8,27.12 10.8,30 C10.8,32.88 11.24,35.52 12.12,37.92 C13,40.32 14.2266663,42.4 15.8,44.16 C17.3733325,45.92 19.2666675,47.28 21.48,48.24 C23.6933325,49.2 26.1333325,49.68 28.8,49.68 C31.04,49.68 33.3466675,49.28 35.72,48.48 C38.093335,47.68 40.48,46.5333337 42.88,45.04 L42.88,54.48 C37.706665,57.1466663 32.4266675,58.48 27.04,58.48 C23.0933325,58.48 19.4666675,57.7733337 16.16,56.36 C12.8533337,54.9466675 10,52.9866675 7.6,50.48 C5.2,47.9733337 3.33333252,44.9733337 2,41.48 C0.66666504,37.9866663 0,34.16 0,30 Z M46.86,37.52 C46.86,34.4266675 47.3666663,31.6 48.38,29.04 C49.3933326,26.48 50.82,24.28 52.66,22.44 C54.5,20.6 56.6733338,19.16 59.18,18.12 C61.6866663,17.08 64.46,16.56 67.5,16.56 C70.54,16.56 73.3133326,17.08 75.82,18.12 C78.3266675,19.16 80.4866675,20.6 82.3,22.44 C84.1133326,24.28 85.5266651,26.48 86.54,29.04 C87.553335,31.6 88.06,34.4266675 88.06,37.52 C88.06,40.56 87.553335,43.3733337 86.54,45.96 C85.5266651,48.5466687 84.1133326,50.7600024 82.3,52.6 C80.4866675,54.44 78.3266675,55.88 75.82,56.92 C73.3133326,57.96 70.54,58.48 67.5,58.48 C64.46,58.48 61.6866663,57.96 59.18,56.92 C56.6733338,55.88 54.5,54.44 52.66,52.6 C50.82,50.76 49.3933326,48.5466663 48.38,45.96 C47.3666663,43.3733337 46.86,40.56 46.86,37.52 Z M57.34,37.52 C57.34,39.3866663 57.5933338,41.08 58.1,42.6 C58.6066663,44.12 59.3,45.4133337 60.18,46.48 C61.06,47.5466675 62.1266663,48.3866675 63.38,49 C64.6333326,49.6133325 66.0066675,49.92 67.5,49.92 C68.9933326,49.92 70.3533326,49.6133325 71.58,49 C72.8066675,48.3866675 73.86,47.5466675 74.74,46.48 C75.62,45.4133337 76.3133326,44.12 76.82,42.6 C77.3266675,41.08 77.58,39.3866663 77.58,37.52 C77.58,35.7066675 77.3266675,34.0266675 76.82,32.48 C76.3133326,30.9332813 75.62,29.6266138 74.74,28.56 C73.86,27.4933325 72.8066675,26.6533325 71.58,26.04 C70.3533326,25.4266675 68.9933326,25.12 67.5,25.12 C66.006626,25.12 64.6332935,25.4266675 63.38,26.04 C62.1266663,26.6533325 61.06,27.4933325 60.18,28.56 C59.3,29.6266675 58.6066663,30.9333325 58.1,32.48 C57.5933338,34.0266675 57.34,35.7066675 57.34,37.52 Z M95.2400001,17.52 L105.48,17.52 L105.48,20.96 C109.159999,18.0266675 113.053333,16.56 117.16,16.56 C119.24,16.56 121.146668,16.9066675 122.88,17.6 C124.613333,18.2933325 126.12,19.28 127.4,20.56 C128.68,21.84 129.666668,23.36 130.36,25.12 C131.053335,26.88 131.4,28.8266675 131.4,30.96 L131.4,57.52 L121.08,57.52 L121.08,32.8 C121.08,30.6666675 120.426668,28.92 119.12,27.56 C117.813333,26.2 116.12,25.52 114.04,25.52 C111,25.52 108.146666,26.9333325 105.48,29.76 L105.48,57.52 L95.2400001,57.52 L95.2400001,17.52 Z M139.38,46.72 C143.326666,49.1733325 147.193334,50.4 150.98,50.4 C152.793334,50.4 154.26,49.9866675 155.38,49.16 C156.5,48.3333325 157.06,47.28 157.06,46 C157.06,44.88 156.606668,44 155.7,43.36 C154.793297,42.72 153.646631,42.16 152.26,41.68 C150.873334,41.2 149.38,40.6933337 147.78,40.16 C146.18,39.6266663 144.686668,38.92 143.3,38.04 C141.913333,37.16 140.766668,36 139.86,34.56 C138.953334,33.12 138.5,31.2266675 138.5,28.88 C138.5,27.0666675 138.873334,25.4 139.62,23.88 C140.366666,22.36 141.42,21.0666675 142.78,20 C144.14,18.9333325 145.753334,18.0933325 147.62,17.48 C149.486666,16.8666675 151.54,16.56 153.78,16.56 C157.62,16.56 161.406668,17.3333325 165.14,18.88 L165.14,27.76 C161.673333,25.68 158.126668,24.64 154.5,24.64 C152.793317,24.64 151.406651,25.0133325 150.34,25.76 C149.273334,26.5066675 148.74,27.4933325 148.74,28.72 C148.74,29.7866675 149.193334,30.6133325 150.1,31.2 C151.006666,31.7866675 152.153334,32.32 153.54,32.8 C154.926666,33.28 156.42,33.7866675 158.02,34.32 C159.62,34.8533325 161.113333,35.5733325 162.5,36.48 C163.886777,37.3867041 165.033445,38.5733704 165.94,40.04 C166.846668,41.5066663 167.3,43.44 167.3,45.84 C167.3,47.7066675 166.913333,49.4133325 166.14,50.96 C165.366668,52.5066675 164.3,53.84 162.94,54.96 C161.58,56.08 159.926668,56.9466663 157.98,57.56 C156.033333,58.1733325 153.913334,58.48 151.62,58.48 C147.673334,58.48 143.593334,57.5733337 139.38,55.76 L139.38,46.72 Z M210.32,57.52 L200,57.52 L200,54 C196.373333,56.9866663 192.506668,58.48 188.4,58.48 C186.32,58.48 184.4,58.12 182.64,57.4 C180.88,56.68 179.373334,55.68 178.12,54.4 C176.86666,53.12 175.893327,51.6 175.2,49.84 C174.506668,48.08 174.16,46.16 174.16,44.08 L174.16,17.52 L184.4,17.52 L184.4,42.24 C184.4,44.32 185.053334,46.0533337 186.36,47.44 C187.666666,48.8266675 189.36,49.52 191.44,49.52 C194.426668,49.52 197.28,48.1066663 200,45.28 L200,17.52 L210.32,17.52 L210.32,57.52 Z M220.14,-7.10542736e-15 L230.38,-7.10542736e-15 L230.38,57.52 L220.14,57.52 L220.14,-7.10542736e-15 Z M253.24,17.52 L264.76,17.52 L264.76,25.76 L253.24,25.76 L253.24,44.24 C253.24,45.8933337 253.773334,47.2533337 254.84,48.32 C255.906668,49.3866675 257.32,49.92 259.08,49.92 C260.733333,49.92 262.626668,49.3866675 264.76,48.32 L264.76,56.8 C261.88,57.92 259.08,58.48 256.36,58.48 C254.386667,58.48 252.586667,58.16 250.96,57.52 C249.333334,56.88 247.933334,55.9866663 246.76,54.84 C245.586667,53.6933337 244.666668,52.3333325 244,50.76 C243.333333,49.1866675 243,47.4666675 243,45.6 L243,25.76 L236.12,25.76 L236.12,17.52 L243,17.52 L243,6.24 L253.24,6.24 L253.24,17.52 Z M268.82,37.52 C268.82,34.4266675 269.326667,31.6 270.34,29.04 C271.353333,26.48 272.78,24.28 274.62,22.44 C276.46,20.6 278.633334,19.16 281.14,18.12 C283.646667,17.08 286.42,16.56 289.46,16.56 C292.5,16.56 295.273333,17.08 297.78,18.12 C300.286668,19.16 302.446668,20.6 304.26,22.44 C306.073333,24.28 307.486665,26.48 308.5,29.04 C309.513335,31.6 310.02,34.4266675 310.02,37.52 C310.02,40.56 309.513335,43.3733337 308.5,45.96 C307.486665,48.5466687 306.073333,50.7600024 304.26,52.6 C302.446668,54.44 300.286668,55.88 297.78,56.92 C295.273333,57.96 292.5,58.48 289.46,58.48 C286.42,58.48 283.646667,57.96 281.14,56.92 C278.633334,55.88 276.46,54.44 274.62,52.6 C272.78,50.76 271.353333,48.5466663 270.34,45.96 C269.326667,43.3733337 268.82,40.56 268.82,37.52 Z M279.3,37.52 C279.3,39.3866663 279.553334,41.08 280.06,42.6 C280.566667,44.12 281.26,45.4133337 282.14,46.48 C283.02,47.5466675 284.086667,48.3866675 285.34,49 C286.593333,49.6133325 287.966668,49.92 289.46,49.92 C290.953333,49.92 292.313333,49.6133325 293.54,49 C294.766668,48.3866675 295.82,47.5466675 296.7,46.48 C297.58,45.4133337 298.273333,44.12 298.78,42.6 C299.286668,41.08 299.54,39.3866663 299.54,37.52 C299.54,35.7066675 299.286668,34.0266675 298.78,32.48 C298.273333,30.9332813 297.58,29.6266138 296.7,28.56 C295.82,27.4933325 294.766668,26.6533325 293.54,26.04 C292.313333,25.4266675 290.953333,25.12 289.46,25.12 C287.966626,25.12 286.593294,25.4266675 285.34,26.04 C284.086667,26.6533325 283.02,27.4933325 282.14,28.56 C281.26,29.6266675 280.566667,30.9333325 280.06,32.48 C279.553334,34.0266675 279.3,35.7066675 279.3,37.52 Z M317.2,17.52 L327.44,17.52 L327.44,21.52 C330.426667,18.2133325 333.706668,16.56 337.28,16.56 C337.866668,16.56 338.426668,16.5866675 338.96,16.64 C339.493333,16.6933325 340.053333,16.8 340.64,16.96 L340.64,26.08 C339.52,25.76 338.32,25.6 337.04,25.6 C335.333333,25.6 333.64,26.04 331.96,26.92 C330.28,27.8 328.773334,29.0933325 327.44,30.8 L327.44,57.52 L317.2,57.52 L317.2,17.52 Z M347.02,17.52 L357.26,17.52 L357.26,57.52 L347.02,57.52 L347.02,17.52 Z M346.3,6.48 C346.3,4.77333496 346.846668,3.37333496 347.94,2.28 C349.033333,1.18666504 350.433333,0.64 352.14,0.64 C353.846667,0.64 355.246667,1.18666504 356.34,2.28 C357.433334,3.37333496 357.98,4.77333496 357.98,6.48 C357.98,8.18671387 357.433334,9.57337891 356.34,10.64 C355.246667,11.706665 353.846667,12.24 352.14,12.24 C350.433333,12.24 349.033333,11.706665 347.94,10.64 C346.846663,9.57333496 346.3,8.18666504 346.3,6.48 Z M388.68,54.32 C385.106666,57.0933337 381.266666,58.48 377.16,58.48 C375.293331,58.48 373.586664,58.1866675 372.04,57.6 C370.493333,57.0133337 369.16,56.2 368.04,55.16 C366.92,54.1199988 366.04,52.866665 365.4,51.4 C364.76,49.9333325 364.44,48.32 364.44,46.56 C364.44,44.48 364.906667,42.5733337 365.84,40.84 C366.773333,39.1066663 368.093333,37.6266663 369.8,36.4 C371.506668,35.1733325 373.533334,34.2133325 375.88,33.52 C378.226667,32.8266675 380.84,32.48 383.72,32.48 C384.52,32.48 385.32,32.4933325 386.12,32.52 C386.92,32.5466675 387.773333,32.5866675 388.68,32.64 L388.68,30.8 C388.68,28.9333325 387.986668,27.4133325 386.6,26.24 C385.213333,25.0666675 383.4,24.48 381.16,24.48 C379.08,24.48 376.92,24.8 374.68,25.44 C372.44,26.08 370.173333,27.04 367.88,28.32 L367.88,19.84 C370.333333,18.72 372.76,17.8933325 375.16,17.36 C377.56,16.8266675 379.96,16.56 382.36,16.56 C384.813333,16.56 387.026668,16.92 389,17.64 C390.973333,18.36 392.653333,19.3733325 394.04,20.68 C395.426668,21.9866675 396.506668,23.5466675 397.28,25.36 C398.053333,27.1733618 398.44,29.1466943 398.44,31.28 L398.44,57.52 L388.68,57.52 L388.68,54.32 Z M374.52,45.12 C374.52,46.72 375.08,48.0266675 376.2,49.04 C377.32,50.0533325 378.76,50.56 380.52,50.56 C381.906667,50.56 383.306668,50.2133325 384.72,49.52 C386.133333,48.8266675 387.453333,47.8666675 388.68,46.64 L388.68,38.8 C387.24,38.64 385.746668,38.56 384.2,38.56 C381.32,38.56 378.986667,39.1733337 377.2,40.4 C375.413334,41.6266663 374.52,43.2 374.52,45.12 L374.52,45.12 Z"
                class="c-logo__name" fill="#000"></path>
            <path
                d="M405.012001,54.01 C405.012001,52.7860005 405.399001,51.796 406.173001,51.04 C406.947001,50.284 407.946001,49.906 409.170001,49.906 C410.394001,49.906 411.393001,50.284 412.167001,51.04 C412.941,51.796 413.328001,52.7860005 413.328001,54.01 C413.328001,55.2340003 412.941,56.2330003 412.167001,57.007 C411.393001,57.7809997 410.394001,58.168 409.170001,58.168 C407.946001,58.168 406.947001,57.7809997 406.173001,57.007 C405.399001,56.2330003 405.012001,55.2339995 405.012001,54.01 Z M418.400001,30.52 L425.312001,30.52 L425.312001,57.52 L418.400001,57.52 L418.400001,30.52 Z M417.914001,23.068 C417.914001,21.9160011 418.283001,20.9710011 419.021001,20.233 C419.759,19.4949989 420.704,19.126 421.856001,19.126 C423.008,19.126 423.953,19.4949989 424.691001,20.233 C425.429001,20.9710011 425.798001,21.9160011 425.798001,23.068 C425.798001,24.2200319 425.429001,25.1560308 424.691001,25.876 C423.953,26.5959989 423.008,26.956 421.856001,26.956 C420.704,26.956 419.759,26.5959989 419.021001,25.876 C418.282998,25.1560011 417.914001,24.2199989 417.914001,23.068 Z M429.736001,44.02 C429.736001,41.9320005 430.078,40.024 430.762001,38.296 C431.446,36.568 432.409001,35.083 433.651001,33.841 C434.893001,32.599 436.360001,31.627 438.052001,30.925 C439.744,30.223 441.616001,29.872 443.668001,29.872 C445.720001,29.872 447.592,30.223 449.284001,30.925 C450.976001,31.627 452.434001,32.599 453.658001,33.841 C454.882,35.083 455.836,36.568 456.520001,38.296 C457.204002,40.024 457.546001,41.9320005 457.546001,44.02 C457.546001,46.072 457.204002,47.9710003 456.520001,49.717 C455.836,51.4630014 454.882,52.9570016 453.658001,54.199 C452.434001,55.441 450.976001,56.413 449.284001,57.115 C447.592,57.817 445.720001,58.168 443.668001,58.168 C441.616001,58.168 439.744,57.817 438.052001,57.115 C436.360001,56.413 434.893001,55.441 433.651001,54.199 C432.409001,52.957 431.446,51.4629997 430.762001,49.717 C430.078,47.9710003 429.736001,46.072 429.736001,44.02 Z M436.810001,44.02 C436.810001,45.2799997 436.981001,46.423 437.323001,47.449 C437.665,48.475 438.133001,49.3480003 438.727001,50.068 C439.321001,50.7880005 440.041,51.3550005 440.887001,51.769 C441.733,52.1829995 442.660001,52.39 443.668001,52.39 C444.676,52.39 445.594,52.1829995 446.422001,51.769 C447.250001,51.3550005 447.961001,50.7880005 448.555001,50.068 C449.149001,49.3480003 449.617,48.475 449.959001,47.449 C450.301001,46.423 450.472001,45.2799997 450.472001,44.02 C450.472001,42.7960005 450.301001,41.6620005 449.959001,40.618 C449.617,39.5739648 449.149001,38.6919643 448.555001,37.972 C447.961001,37.2519995 447.250001,36.6849995 446.422001,36.271 C445.594,35.8570005 444.676,35.65 443.668001,35.65 C442.659973,35.65 441.732974,35.8570005 440.887001,36.271 C440.041,36.6849995 439.321001,37.2519995 438.727001,37.972 C438.133001,38.6920005 437.665,39.5739995 437.323001,40.618 C436.981001,41.6620005 436.810001,42.7960005 436.810001,44.02 Z"
                class="c-logo__extension" fill="gray"></path>
        </g>
    </g>
</svg>